# xmcd
#
# Track frame offsets:
#	184
#	22060
#	37132
#	54692
#	70747
#	89005
#	105999
#	124285
#	139849
#	156027
#	174100
#	187135
#	203514
#	221866
#
# Disc length: 3173
#
# Revision: 3
# Processed by: cddbd v1.5.1PL0 Copyright (c) Steve Scherf et al.
# Submitted via: CDex 1.51
# Normalized: r2:TRMNUM
#
DISCID=cf0c630e
DTITLE=Les bandits Manchos - Les bandits Manchos
DYEAR=2001
DGENRE=Jazz
TTITLE0=Nocturne Swing
TTITLE1=Pourquoi ?
TTITLE2=Paris Boogie
TTITLE3=Zazie et le Zazou
TTITLE4=Prima donna
TTITLE5=Poupée de magazine
TTITLE6=Du bon côté
TTITLE7=Ambiance tamisée
TTITLE8=J'vais m'en j'ter un derrière la cravate
TTITLE9=Sammy la debrouille
TTITLE10=Buona sera
TTITLE11=Riffi hifi
TTITLE12=Au clair du blues
TTITLE13=J'ai j'té ma clef dans un tonneau d' gourdron
EXTD=YEAR: 2001
EXTT0=
EXTT1=
EXTT2=
EXTT3=
EXTT4=
EXTT5=
EXTT6=
EXTT7=
EXTT8=
EXTT9=
EXTT10=
EXTT11=
EXTT12=
EXTT13=
PLAYORDER=
